<?xml version="1.0" encoding="utf-8"?>
<!-- Generator: Adobe Illustrator 27.2.0, SVG Export Plug-In . SVG Version: 6.00 Build 0)  -->
<svg version="1.1" id="Layer_1" xmlns="http://www.w3.org/2000/svg" xmlns:xlink="http://www.w3.org/1999/xlink" x="0px" y="0px"
	 viewBox="0 0 824.3 766.7" style="enable-background:new 0 0 824.3 766.7;" xml:space="preserve">
<style type="text/css">
	.st0{fill-rule:evenodd;clip-rule:evenodd;fill:#FEE6D3;}
	.st1{fill:none;stroke:#FFF3D2;stroke-width:3;}
</style>
<g>
	<path class="st0" d="M633.4,216.2c61.2,54.9,176.1,68.9,187.3,151c11.2,82-92.7,132.6-138.9,202.6
		c-40.3,61.1-48.2,150.2-114.5,181.1c-66.1,30.8-136.6-26.2-208.6-30.6c-84.8-5.2-183.5,55.6-248.9,2.8C45.3,671,67.6,566.7,65,483
		c-2.3-75.1-4.1-151.1,30.5-218.7c35.1-68.6,93.8-121.8,162.1-157.5C327,70.5,407.3,41,481.3,62.5
		C552.7,83.3,578.4,166.9,633.4,216.2z"/>
	<path class="st1" d="M650.1,185.7c56.9,52.2,158.7,71,171.4,147.2c12.9,77-70.7,133-113.5,198.3c-32.6,49.8-55.2,107.9-106.7,137.7
		c-50.4,29.1-110.8,17.7-168.9,21.6c-69.1,4.7-138.9,30.5-202.8,3.6c-75.7-31.9-157.9-83.2-176.3-163.3
		c-18.4-79.9,60.9-146.1,87.1-223.9c28.4-84.3,5.6-191.5,72.6-249.9c68.4-59.6,175.2-67.2,262.1-41.6
		C555.2,38.9,588.6,129.3,650.1,185.7z"/>
	<path class="st1" d="M745.9,273.4c33.3,82.2,95.2,171.2,62.7,251.5C776,605.7,667,608.6,593.2,651.6
		c-53.5,31.3-97.2,74.5-157.1,90.9c-69.8,19.1-142.8,34.3-212.6,10.5C143.3,725.6,61.1,679.4,23,601.4
		C-15.4,522.7,5.4,431,25.4,347.2c19-79.8,45.6-162,108.7-211.2c60.7-47.4,145.3-29.9,220.6-45.7c87.6-18.3,173.5-92.8,256.4-54
		C693.9,75.1,711,187,745.9,273.4z"/>
</g>
</svg>
