<svg width="715" height="647" viewBox="0 0 715 647" fill="none" xmlns="http://www.w3.org/2000/svg">
<g clip-path="url(#clip0_136_90)">
<path d="M563.852 156.706C613.214 200.732 701.469 216.623 712.545 280.912C723.734 345.859 651.205 393.169 614.073 448.293C585.77 490.303 566.211 539.359 521.524 564.499C477.826 589.074 425.393 579.403 375.069 582.728C315.099 586.686 254.556 608.467 199.192 585.774C133.54 558.87 62.2425 515.527 46.2482 447.955C30.2712 380.493 99.0711 324.652 121.822 259.004C146.473 187.88 126.654 97.3871 184.837 48.0859C244.165 -2.20261 336.757 -8.64164 412.157 12.9709C481.573 32.8618 510.517 109.134 563.843 156.706H563.852Z" stroke="#27807D" stroke-width="2"/>
<path d="M647.007 230.75C675.847 300.145 729.546 375.194 701.4 443.019C673.115 511.164 578.502 513.57 514.55 549.908C468.103 576.297 430.207 612.746 378.304 626.586C317.735 642.738 254.443 655.54 193.875 635.413C124.32 612.298 53.005 573.318 19.9929 507.536C-13.3315 441.137 4.69244 363.691 22.0225 293.005C38.5286 225.687 61.5399 156.3 116.28 114.763C168.938 74.7957 242.274 89.5135 307.639 76.2303C383.656 60.7868 458.085 -2.06757 530.033 30.6846C601.912 63.4114 616.701 157.811 647.024 230.75H647.007Z" stroke="#27807D" stroke-width="2"/>
</g>
<defs>
<clipPath id="clip0_136_90">
<rect width="715" height="647" fill="white"/>
</clipPath>
</defs>
</svg>
