<svg width="77" height="58" viewBox="0 0 77 58" fill="none" xmlns="http://www.w3.org/2000/svg">
<path d="M2.92791 15.6591V5.90909H4.27592V7.05859H4.39134C4.47135 6.91087 4.58677 6.74006 4.73757 6.54616C4.88838 6.35227 5.09766 6.183 5.36541 6.03835C5.63317 5.89062 5.9871 5.81676 6.4272 5.81676C6.99965 5.81676 7.51054 5.96141 7.95987 6.25071C8.40921 6.54001 8.7616 6.95703 9.01705 7.50178C9.27557 8.04652 9.40483 8.70206 9.40483 9.46839C9.40483 10.2347 9.27711 10.8918 9.02166 11.4396C8.76622 11.9844 8.41536 12.4045 7.96911 12.6999C7.52285 12.9923 7.01349 13.1385 6.44105 13.1385C6.01018 13.1385 5.65779 13.0662 5.38388 12.9215C5.11304 12.7769 4.90069 12.6076 4.7468 12.4137C4.59292 12.2198 4.47443 12.0475 4.39134 11.8967H4.30824V15.6591H2.92791ZM4.28054 9.45455C4.28054 9.95312 4.35286 10.3902 4.49751 10.7656C4.64216 11.1411 4.85144 11.435 5.12536 11.6474C5.39927 11.8567 5.73473 11.9613 6.13175 11.9613C6.54415 11.9613 6.88885 11.852 7.16584 11.6335C7.44283 11.4119 7.65211 11.1119 7.79368 10.7333C7.93833 10.3548 8.01065 9.9285 8.01065 9.45455C8.01065 8.98674 7.93987 8.56664 7.7983 8.19425C7.6598 7.82185 7.45052 7.52794 7.17045 7.3125C6.89347 7.09706 6.54723 6.98935 6.13175 6.98935C5.73165 6.98935 5.39311 7.09245 5.11612 7.29865C4.84221 7.50485 4.63447 7.79261 4.4929 8.16193C4.35133 8.53125 4.28054 8.96212 4.28054 9.45455ZM13.8082 13.1431C13.1434 13.1431 12.5633 12.9908 12.0678 12.6861C11.5723 12.3814 11.1876 11.9551 10.9137 11.4073C10.6398 10.8595 10.5028 10.2193 10.5028 9.48686C10.5028 8.7513 10.6398 8.10807 10.9137 7.55717C11.1876 7.00627 11.5723 6.57848 12.0678 6.27379C12.5633 5.96911 13.1434 5.81676 13.8082 5.81676C14.473 5.81676 15.0531 5.96911 15.5486 6.27379C16.0441 6.57848 16.4288 7.00627 16.7027 7.55717C16.9767 8.10807 17.1136 8.7513 17.1136 9.48686C17.1136 10.2193 16.9767 10.8595 16.7027 11.4073C16.4288 11.9551 16.0441 12.3814 15.5486 12.6861C15.0531 12.9908 14.473 13.1431 13.8082 13.1431ZM13.8128 11.9844C14.2437 11.9844 14.6007 11.8705 14.8838 11.6428C15.167 11.415 15.3763 11.1119 15.5117 10.7333C15.6502 10.3548 15.7194 9.93774 15.7194 9.48224C15.7194 9.02983 15.6502 8.61435 15.5117 8.2358C15.3763 7.85417 15.167 7.54794 14.8838 7.31712C14.6007 7.08629 14.2437 6.97088 13.8128 6.97088C13.3789 6.97088 13.0188 7.08629 12.7326 7.31712C12.4494 7.54794 12.2386 7.85417 12.1001 8.2358C11.9647 8.61435 11.897 9.02983 11.897 9.48224C11.897 9.93774 11.9647 10.3548 12.1001 10.7333C12.2386 11.1119 12.4494 11.415 12.7326 11.6428C13.0188 11.8705 13.3789 11.9844 13.8128 11.9844ZM19.8458 13L17.7592 5.90909H19.1857L20.5752 11.1165H20.6445L22.0387 5.90909H23.4651L24.8501 11.0934H24.9193L26.2997 5.90909H27.7262L25.6441 13H24.2361L22.7958 7.88033H22.6896L21.2492 13H19.8458ZM31.7464 13.1431C31.0477 13.1431 30.4461 12.9938 29.9413 12.6953C29.4397 12.3937 29.0519 11.9705 28.778 11.4258C28.5071 10.878 28.3717 10.2363 28.3717 9.50071C28.3717 8.77438 28.5071 8.13423 28.778 7.58026C29.0519 7.02628 29.4335 6.59387 29.9229 6.28303C30.4153 5.97218 30.9908 5.81676 31.6494 5.81676C32.0495 5.81676 32.4373 5.88293 32.8128 6.01527C33.1882 6.14761 33.5252 6.35535 33.8238 6.63849C34.1223 6.92164 34.3578 7.28942 34.5301 7.74183C34.7024 8.19117 34.7886 8.73745 34.7886 9.38068V9.87003H29.1519V8.83594H33.436C33.436 8.47277 33.3621 8.15116 33.2144 7.87109C33.0667 7.58795 32.8589 7.36482 32.5912 7.2017C32.3265 7.03859 32.0157 6.95703 31.6587 6.95703C31.2709 6.95703 30.9323 7.05244 30.643 7.24325C30.3568 7.43099 30.1352 7.6772 29.9783 7.98189C29.8244 8.2835 29.7474 8.61127 29.7474 8.9652V9.77308C29.7474 10.247 29.8305 10.6502 29.9967 10.9826C30.166 11.315 30.4014 11.5689 30.703 11.7443C31.0047 11.9167 31.357 12.0028 31.7602 12.0028C32.0218 12.0028 32.2603 11.9659 32.4758 11.892C32.6912 11.8151 32.8774 11.7012 33.0344 11.5504C33.1913 11.3996 33.3114 11.2134 33.3944 10.9918L34.7009 11.2273C34.5963 11.612 34.4085 11.949 34.1377 12.2383C33.8699 12.5245 33.5329 12.7476 33.1267 12.9077C32.7235 13.0646 32.2634 13.1431 31.7464 13.1431ZM36.1901 13V5.90909H37.5243V7.03551H37.5982C37.7274 6.65388 37.9552 6.35381 38.2814 6.1353C38.6107 5.91371 38.9831 5.80291 39.3986 5.80291C39.4848 5.80291 39.5863 5.80599 39.7033 5.81214C39.8233 5.8183 39.9172 5.82599 39.9849 5.83523V7.15554C39.9295 7.14015 39.831 7.12322 39.6894 7.10476C39.5479 7.08321 39.4063 7.07244 39.2647 7.07244C38.9385 7.07244 38.6476 7.14169 38.3922 7.28018C38.1398 7.4156 37.9398 7.60488 37.7921 7.84801C37.6443 8.08807 37.5705 8.36198 37.5705 8.66974V13H36.1901ZM43.8516 13.1431C43.153 13.1431 42.5513 12.9938 42.0466 12.6953C41.5449 12.3937 41.1571 11.9705 40.8832 11.4258C40.6124 10.878 40.477 10.2363 40.477 9.50071C40.477 8.77438 40.6124 8.13423 40.8832 7.58026C41.1571 7.02628 41.5387 6.59387 42.0281 6.28303C42.5205 5.97218 43.096 5.81676 43.7547 5.81676C44.1547 5.81676 44.5425 5.88293 44.918 6.01527C45.2935 6.14761 45.6305 6.35535 45.929 6.63849C46.2275 6.92164 46.463 7.28942 46.6353 7.74183C46.8077 8.19117 46.8939 8.73745 46.8939 9.38068V9.87003H41.2571V8.83594H45.5412C45.5412 8.47277 45.4674 8.15116 45.3196 7.87109C45.1719 7.58795 44.9642 7.36482 44.6964 7.2017C44.4317 7.03859 44.1209 6.95703 43.7639 6.95703C43.3761 6.95703 43.0376 7.05244 42.7483 7.24325C42.462 7.43099 42.2404 7.6772 42.0835 7.98189C41.9296 8.2835 41.8527 8.61127 41.8527 8.9652V9.77308C41.8527 10.247 41.9358 10.6502 42.102 10.9826C42.2712 11.315 42.5067 11.5689 42.8083 11.7443C43.1099 11.9167 43.4623 12.0028 43.8654 12.0028C44.127 12.0028 44.3656 11.9659 44.581 11.892C44.7964 11.8151 44.9826 11.7012 45.1396 11.5504C45.2966 11.3996 45.4166 11.2134 45.4997 10.9918L46.8061 11.2273C46.7015 11.612 46.5138 11.949 46.2429 12.2383C45.9752 12.5245 45.6382 12.7476 45.2319 12.9077C44.8288 13.0646 44.3686 13.1431 43.8516 13.1431ZM50.9498 13.1385C50.3774 13.1385 49.8665 12.9923 49.4172 12.6999C48.9709 12.4045 48.6201 11.9844 48.3646 11.4396C48.1123 10.8918 47.9861 10.2347 47.9861 9.46839C47.9861 8.70206 48.1138 8.04652 48.3692 7.50178C48.6278 6.95703 48.9817 6.54001 49.431 6.25071C49.8804 5.96141 50.3897 5.81676 50.9591 5.81676C51.3992 5.81676 51.7531 5.89062 52.0209 6.03835C52.2917 6.183 52.501 6.35227 52.6487 6.54616C52.7995 6.74006 52.9165 6.91087 52.9996 7.05859H53.0827V3.54545H54.463V13H53.115V11.8967H52.9996C52.9165 12.0475 52.7964 12.2198 52.6395 12.4137C52.4856 12.6076 52.2732 12.7769 52.0024 12.9215C51.7316 13.0662 51.3807 13.1385 50.9498 13.1385ZM51.2545 11.9613C51.6516 11.9613 51.987 11.8567 52.2609 11.6474C52.5379 11.435 52.7472 11.1411 52.8888 10.7656C53.0334 10.3902 53.1057 9.95312 53.1057 9.45455C53.1057 8.96212 53.035 8.53125 52.8934 8.16193C52.7518 7.79261 52.5441 7.50485 52.2702 7.29865C51.9963 7.09245 51.6577 6.98935 51.2545 6.98935C50.8391 6.98935 50.4928 7.09706 50.2158 7.3125C49.9388 7.52794 49.7296 7.82185 49.588 8.19425C49.4495 8.56664 49.3802 8.98674 49.3802 9.45455C49.3802 9.9285 49.451 10.3548 49.5926 10.7333C49.7342 11.1119 49.9435 11.4119 50.2204 11.6335C50.5005 11.852 50.8452 11.9613 51.2545 11.9613ZM59.7243 13V3.54545H61.1046V7.05859H61.1877C61.2677 6.91087 61.3831 6.74006 61.534 6.54616C61.6848 6.35227 61.894 6.183 62.1618 6.03835C62.4295 5.89062 62.7835 5.81676 63.2236 5.81676C63.796 5.81676 64.3069 5.96141 64.7563 6.25071C65.2056 6.54001 65.558 6.95703 65.8134 7.50178C66.0719 8.04652 66.2012 8.70206 66.2012 9.46839C66.2012 10.2347 66.0735 10.8918 65.818 11.4396C65.5626 11.9844 65.2117 12.4045 64.7655 12.6999C64.3192 12.9923 63.8099 13.1385 63.2374 13.1385C62.8066 13.1385 62.4542 13.0662 62.1803 12.9215C61.9094 12.7769 61.6971 12.6076 61.5432 12.4137C61.3893 12.2198 61.2708 12.0475 61.1877 11.8967H61.0723V13H59.7243ZM61.0769 9.45455C61.0769 9.95312 61.1492 10.3902 61.2939 10.7656C61.4385 11.1411 61.6478 11.435 61.9217 11.6474C62.1956 11.8567 62.5311 11.9613 62.9281 11.9613C63.3405 11.9613 63.6852 11.852 63.9622 11.6335C64.2392 11.4119 64.4485 11.1119 64.5901 10.7333C64.7347 10.3548 64.807 9.9285 64.807 9.45455C64.807 8.98674 64.7362 8.56664 64.5947 8.19425C64.4562 7.82185 64.2469 7.52794 63.9668 7.3125C63.6898 7.09706 63.3436 6.98935 62.9281 6.98935C62.528 6.98935 62.1895 7.09245 61.9125 7.29865C61.6386 7.50485 61.4309 7.79261 61.2893 8.16193C61.1477 8.53125 61.0769 8.96212 61.0769 9.45455ZM68.2525 15.6591C68.0463 15.6591 67.8586 15.6422 67.6893 15.6083C67.52 15.5775 67.3938 15.5437 67.3107 15.5067L67.6431 14.3757C67.8955 14.4434 68.1202 14.4727 68.3171 14.4634C68.5141 14.4542 68.688 14.3803 68.8388 14.2418C68.9927 14.1033 69.1281 13.8771 69.245 13.5632L69.4159 13.0923L66.8214 5.90909H68.2987L70.0945 11.4119H70.1683L71.9641 5.90909H73.446L70.5238 13.9464C70.3884 14.3157 70.216 14.6281 70.0068 14.8835C69.7975 15.142 69.5482 15.3359 69.2589 15.4652C68.9696 15.5945 68.6341 15.6591 68.2525 15.6591Z" fill="#1B7376"/>
<g clip-path="url(#clip0_71_277)">
<path d="M18.2796 31.8643C18.256 30.0589 17.7141 28.6812 16.7008 27.6835C15.6641 26.6858 14.2503 26.187 12.4123 26.187C10.6687 26.187 9.302 26.7096 8.28878 27.731C7.27556 28.7524 6.66292 30.1302 6.42729 31.8643H18.2796V31.8643ZM6.42729 36.3538C6.61579 38.1592 7.29912 39.5369 8.45372 40.5346C9.60832 41.5323 10.9986 42.0311 12.648 42.0311C14.0853 42.0311 15.3106 41.7223 16.2767 41.1047C17.2428 40.4871 18.1146 39.7269 18.8451 38.8005L22.9922 42.0311C21.6491 43.7652 20.1411 44.9767 18.4681 45.713C16.7951 46.4494 15.0514 46.8057 13.2135 46.8057C11.4698 46.8057 9.84395 46.4969 8.31234 45.9031C6.78073 45.3092 5.43763 44.4541 4.3066 43.3614C3.17556 42.2687 2.28016 40.9384 1.64395 39.3944C0.984182 37.8504 0.654297 36.14 0.654297 34.2397C0.654297 32.3393 0.984182 30.629 1.64395 29.085C2.30372 27.541 3.19912 26.2107 4.3066 25.118C5.43763 24.0253 6.75717 23.1702 8.31234 22.5763C9.84395 21.9825 11.4934 21.6736 13.2135 21.6736C14.8158 21.6736 16.2767 21.9587 17.6198 22.5526C18.9394 23.1227 20.094 23.9778 21.0365 25.0705C21.979 26.1632 22.7095 27.5172 23.2514 29.1325C23.7698 30.7478 24.0526 32.6006 24.0526 34.691V36.3301H6.42729V36.3538Z" fill="#1B7376"/>
<path d="M71.2253 34.2635C71.2253 33.337 71.0839 32.4344 70.7776 31.5792C70.4712 30.7241 70.0235 29.9639 69.4345 29.275C68.8454 28.6099 68.1149 28.0873 67.2902 27.6835C66.4655 27.2797 65.4994 27.0896 64.4626 27.0896C63.4258 27.0896 62.4597 27.2797 61.635 27.6835C60.8103 28.0873 60.0799 28.6099 59.4908 29.275C58.9017 29.9402 58.454 30.7003 58.1477 31.5792C57.8413 32.4344 57.7 33.337 57.7 34.2635C57.7 35.1899 57.8649 36.0925 58.1477 36.9477C58.454 37.8029 58.9017 38.5867 59.4908 39.2519C60.0799 39.917 60.8103 40.4396 61.635 40.8434C62.4597 41.2472 63.4258 41.4373 64.4626 41.4373C65.4994 41.4373 66.4655 41.2472 67.2902 40.8434C68.1149 40.4396 68.8454 39.917 69.4345 39.2519C70.0235 38.5867 70.4712 37.8266 70.7776 36.9477C71.0839 36.0925 71.2253 35.1899 71.2253 34.2635ZM52.0684 22.315H57.5586V25.9019H57.6528C58.4776 24.4054 59.6086 23.3365 61.0224 22.6951C62.4362 22.0537 63.9678 21.7212 65.5936 21.7212C67.3609 21.7212 68.9396 22.0537 70.3534 22.6951C71.7672 23.3365 72.9689 24.2391 73.9586 25.3556C74.9482 26.472 75.7023 27.8023 76.2207 29.3463C76.739 30.8666 76.9982 32.5294 76.9982 34.2872C76.9982 36.045 76.7155 37.6841 76.1735 39.2281C75.6316 40.7484 74.854 42.0786 73.8879 43.2188C72.8982 44.3591 71.7201 45.238 70.3534 45.8793C68.9632 46.5207 67.4551 46.8533 65.8293 46.8533C64.7689 46.8533 63.8264 46.7345 62.9546 46.4969C62.1063 46.2594 61.3523 45.9743 60.7161 45.5943C60.0799 45.238 59.5379 44.8341 59.0902 44.4303C58.6425 44.0265 58.2655 43.5989 57.9827 43.2188H57.8413V57.614H52.0684V22.315Z" fill="#1B7376"/>
<path d="M46.3667 16.5665L24.5 46.2119H31.5454L36.8236 39.0143L42.1489 46.2119H49.1707L40.358 34.2635L53.3885 16.5665H46.3667Z" fill="#1B7376"/>
<path d="M31.5453 22.315H24.5234L31.616 31.9593L35.1269 27.1847L31.5453 22.315Z" fill="#1B7376"/>
<path d="M8.59416 53.4332C9.06542 53.4332 9.466 53.0056 9.466 52.5068C9.466 52.0079 9.06542 51.6279 8.59416 51.6279H7.1568V53.457H8.59416V53.4332ZM5.97864 50.6777C5.97864 50.6777 6.04933 50.5114 6.14358 50.5114H8.66485C9.72519 50.5114 10.597 51.3903 10.597 52.483C10.597 53.3144 10.0551 54.0033 9.27749 54.3359L10.4792 56.6638C10.4792 56.6638 10.4792 56.9251 10.3378 56.9251H9.41887C9.41887 56.9251 9.30106 56.8776 9.27749 56.8301L8.09933 54.4071H7.10968V56.7351C7.10968 56.7351 7.03899 56.9013 6.94473 56.9013H6.12002C6.12002 56.9013 5.95508 56.8063 5.95508 56.7351V50.6777H5.97864Z" fill="#1B7376"/>
<path d="M14.3672 50.6777C14.3672 50.6777 14.4379 50.5114 14.5321 50.5114H18.1373C18.1373 50.5114 18.3022 50.5827 18.3022 50.6777V51.4378C18.3022 51.4378 18.2316 51.6041 18.1373 51.6041H15.5218V53.1006H17.7132C17.7132 53.1006 17.8781 53.1957 17.8781 53.2669V54.0271C17.8781 54.0271 17.8074 54.1933 17.7132 54.1933H15.5218V55.8086H18.1373C18.1373 55.8086 18.3022 55.8799 18.3022 55.9749V56.7351C18.3022 56.7351 18.2316 56.9013 18.1373 56.9013H14.5321C14.5321 56.9013 14.3672 56.8063 14.3672 56.7351V50.6777V50.6777Z" fill="#1B7376"/>
<path d="M24.546 54.7397L23.6506 52.7206H23.6271L22.7552 54.7397H24.546ZM20.7288 56.6876L23.4857 50.5114C23.4857 50.5114 23.5564 50.4164 23.6271 50.4164H23.7213C23.7213 50.4164 23.8391 50.4639 23.8627 50.5114L26.596 56.6876C26.6431 56.8063 26.596 56.9251 26.4546 56.9251H25.6771C25.5357 56.9251 25.4886 56.8776 25.4179 56.7351L24.9937 55.7374H22.3546L21.9305 56.7351C21.9305 56.7351 21.8127 56.9251 21.6713 56.9251H20.8937C20.7523 56.9251 20.6817 56.8063 20.7523 56.6876" fill="#1B7376"/>
<path d="M29.1641 50.6777C29.1641 50.6777 29.2348 50.5114 29.329 50.5114H30.1537C30.1537 50.5114 30.3187 50.5827 30.3187 50.6777V55.8086H32.5807C32.5807 55.8086 32.7457 55.8799 32.7457 55.9749V56.7351C32.7457 56.7351 32.675 56.9013 32.5807 56.9013H29.329C29.329 56.9013 29.1641 56.8063 29.1641 56.7351V50.6777V50.6777Z" fill="#1B7376"/>
<path d="M36.5881 51.6041H35.245C35.245 51.6041 35.0801 51.5091 35.0801 51.4378V50.6777C35.0801 50.6777 35.1508 50.5114 35.245 50.5114H39.1094C39.1094 50.5114 39.2743 50.6064 39.2743 50.6777V51.4378C39.2743 51.4378 39.2036 51.6041 39.1094 51.6041H37.7427V56.7351C37.7427 56.7351 37.672 56.9013 37.5778 56.9013H36.7531C36.7531 56.9013 36.5881 56.8301 36.5881 56.7351V51.6041Z" fill="#1B7376"/>
<path d="M44.1518 53.837L42.1254 50.7727C42.0547 50.6539 42.1254 50.5114 42.2668 50.5114H43.1622C43.1622 50.5114 43.28 50.5589 43.3035 50.5827L44.7173 52.6968L46.1311 50.5827C46.1311 50.5827 46.2018 50.5114 46.2725 50.5114H47.1915C47.3329 50.5114 47.4035 50.6539 47.3329 50.7727L45.2829 53.8133V56.7351C45.2829 56.7351 45.2122 56.9013 45.1179 56.9013H44.2932C44.2932 56.9013 44.1283 56.8301 44.1283 56.7351V53.8133L44.1518 53.837Z" fill="#1B7376"/>
<path d="M71.957 16.5665V17.0416H72.7582V19.322H73.3001V17.0416H74.0777V16.5665H71.957Z" fill="#1B7376"/>
<path d="M76.1989 16.5665L75.7041 18.4431L75.2328 16.5665H74.4316V19.322H74.9265V17.1603L75.4449 19.322H75.9632L76.5052 17.1603V19.322H77V16.5665H76.1989Z" fill="#1B7376"/>
</g>
<defs>
<clipPath id="clip0_71_277">
<rect width="76.3448" height="41" fill="white" transform="translate(0.654297 16.5665)"/>
</clipPath>
</defs>
</svg>
