<svg width="128" height="57" viewBox="0 0 128 57" fill="none" xmlns="http://www.w3.org/2000/svg">
<g clip-path="url(#clip0_71_259)">
<path d="M35.6111 17.4775L35.5216 17.3888L35.4336 17.4792L31.3551 21.6673C27.0846 11.3462 17.9802 1.90276 17.4759 1.38848C17.4758 1.38844 17.4758 1.38839 17.4757 1.38835L16.8005 0.69596L16.711 0.6042L16.6215 0.69596L15.946 1.3886L15.946 1.38865C15.6164 1.72693 11.6021 5.87962 7.66929 11.5978C3.74032 17.3104 -0.125 24.6103 -0.125 31.2385C-0.125 40.0789 6.86286 47.3145 15.6475 47.8613V56.4872V56.6122H15.7725H55.2978H55.4228V56.4872V37.1496V37.0975L55.3858 37.0608L35.6111 17.4775ZM22.0359 16.4889L17.7805 20.7032V11.1254V11.0004H17.6555H15.7784H15.6534V11.1254V20.7032L11.398 16.4889L11.31 16.4018L11.2221 16.4889L9.895 17.8031L9.80531 17.892L9.895 17.9808L15.6564 23.6865V35.1509L7.67979 27.2514L7.59183 27.1643L7.50387 27.2514L6.17679 28.5657L6.08711 28.6545L6.17679 28.7433L15.6564 38.1312V45.745C8.04189 45.2024 2.011 38.9081 2.011 31.2326V31.0003L2.00384 31.0051C2.08657 25.6453 4.99488 19.6463 8.28043 14.5561C11.544 9.50001 15.1658 5.36143 16.711 3.67073C18.2576 5.36137 21.8802 9.49997 25.1442 14.5558C28.4779 19.7196 31.4229 25.8186 31.4229 31.2356C31.4229 38.911 25.3921 45.2024 17.7745 45.7479V38.1342L27.6367 28.3674L27.7264 28.2786L27.6367 28.1897L26.3097 26.8755L26.2217 26.7884L26.1337 26.8755L17.7775 35.1509V23.6865L23.5389 17.9808L23.6286 17.892L23.5389 17.8031L22.2119 16.4889L22.1239 16.4018L22.0359 16.4889ZM53.2958 54.5034H17.7775V47.8613C26.5651 47.3145 33.553 40.0789 33.553 31.2385C33.553 28.8233 33.0334 26.3244 32.1931 23.8442L35.5487 20.399L53.2958 37.9743V54.5034Z" fill="#1B7376" stroke="#1B7376" stroke-width="0.25"/>
<path d="M65.9092 27.0561V27.1811H66.0342H70.9569C71.9828 27.1811 72.9069 26.9436 73.5779 26.4501C74.2537 25.9531 74.6626 25.2034 74.6626 24.2086C74.6626 23.4595 74.3872 22.9084 73.9902 22.5138C73.6905 22.2157 73.3246 22.0098 72.9627 21.872C73.6444 21.5531 74.2741 20.9005 74.2741 19.816C74.2741 19.0458 73.9914 18.3951 73.4195 17.9399C72.8515 17.4879 72.0124 17.2401 70.9181 17.2401H66.0372H66.0342H65.9092V17.3651V27.0561ZM72.3383 19.9787C72.3383 20.3735 72.202 20.6661 71.9242 20.8655C71.6388 21.0702 71.1877 21.1887 70.5355 21.1887H67.7612V18.757H70.5803C71.1023 18.757 71.5452 18.8371 71.8541 19.0277C72.1528 19.212 72.3383 19.5069 72.3383 19.9787ZM70.6491 25.6701H67.7642V22.6997H70.5594C71.2657 22.6997 71.8044 22.8332 72.163 23.0821C72.5147 23.3262 72.706 23.6895 72.706 24.1879C72.706 24.7839 72.4573 25.1444 72.0876 25.3635C71.7078 25.5885 71.1891 25.6701 70.6491 25.6701Z" fill="#1B7376" stroke="#1B7376" stroke-width="0.25"/>
<path d="M80.4227 17.3651V17.2401H80.2977H78.6807H78.5557V17.3651V27.0561V27.1811H78.6807H80.2977H80.4227V27.0561V17.3651Z" fill="#1B7376" stroke="#1B7376" stroke-width="0.25"/>
<path d="M91.9963 22.3384C92.4272 22.1686 92.7754 21.9162 93.0293 21.586C93.3483 21.1711 93.5106 20.6434 93.5106 20.0261C93.5106 19.136 93.1621 18.4322 92.5384 17.9544C91.919 17.4799 91.0402 17.2371 89.9902 17.2371H85.1602H85.0352V17.3621V27.0531V27.1781H85.1602H86.7652H86.8902V27.0531V23.1081H89.2908C90.11 23.1081 90.6093 23.22 90.9067 23.4655C91.1965 23.7046 91.3238 24.0967 91.3238 24.7473V25.0699C91.3238 25.1167 91.3238 25.1631 91.3238 25.209C91.3235 25.5855 91.3233 25.932 91.3382 26.2345C91.3547 26.5725 91.3904 26.8681 91.4714 27.0977L91.5009 27.1811H91.5893H93.2451H93.4118L93.3652 27.0211C93.3085 26.8269 93.2796 26.5354 93.2658 26.193C93.2533 25.8831 93.2534 25.5414 93.2536 25.2078C93.2536 25.1755 93.2536 25.1434 93.2536 25.1114V24.6703C93.2536 23.794 93.0148 23.2212 92.6863 22.8441C92.4728 22.5989 92.2264 22.4423 91.9963 22.3384ZM89.5957 21.5824H86.8872V18.7629H89.6375C90.3209 18.7629 90.8117 18.888 91.1289 19.116C91.4386 19.3387 91.5988 19.6714 91.5988 20.1327C91.5988 20.6391 91.4376 20.9906 91.1247 21.2212C90.804 21.4576 90.3041 21.5824 89.5957 21.5824Z" fill="#1B7376" stroke="#1B7376" stroke-width="0.25"/>
<path d="M106.94 24.1991L106.992 24.0362H106.821H105.189H105.109L105.076 24.1088C104.832 24.636 104.544 25.0635 104.114 25.3612C103.685 25.6584 103.102 25.8359 102.251 25.8359C101.192 25.8359 100.372 25.433 99.8147 24.7798C99.2557 24.1242 98.9538 23.207 98.9538 22.1692C98.9538 21.1322 99.2626 20.2379 99.8229 19.6046C100.382 18.9732 101.199 18.5912 102.239 18.5912C103.149 18.5912 103.768 18.817 104.203 19.1427C104.639 19.4693 104.902 19.9052 105.083 20.3458L105.114 20.4234H105.198H106.851H107.008L106.973 20.2708C106.787 19.4485 106.341 18.6378 105.571 18.033C104.8 17.428 103.713 17.0359 102.257 17.0359C98.9759 17.0359 96.9912 19.4176 96.9912 22.2284C96.9912 23.6278 97.436 24.918 98.311 25.8595C99.1874 26.8026 100.486 27.3853 102.17 27.3853C103.621 27.3853 104.679 27.0229 105.444 26.4372C106.208 25.8519 106.669 25.0526 106.94 24.1991Z" fill="#1B7376" stroke="#1B7376" stroke-width="0.25"/>
<path d="M110.809 17.2401H110.684V17.3651V27.0561V27.1811H110.809H112.429H112.554V27.0561V22.673H117.866V27.0561V27.1811H117.991H119.611H119.736V27.0561V17.3651V17.2401H119.611H117.991H117.866V17.3651V21.091H112.554V17.3651V17.2401H112.429H110.809Z" fill="#1B7376" stroke="#1B7376" stroke-width="0.25"/>
<path d="M66.0371 32.0016H65.9121V32.1266V41.8176V41.9426H66.0371H73.2165H73.3216L73.3396 41.839L73.5727 40.5011L73.5983 40.3546H73.4496H67.7731V32.1266V32.0016H67.6481H66.0371Z" fill="#1B7376" stroke="#1B7376" stroke-width="0.25"/>
<path d="M84.3866 37.5292H84.438L84.4746 37.4931L84.4775 37.4901L84.5146 37.4534V37.4013V36.0722V35.9472H84.3896H78.743V33.5776H84.6945H84.8195V33.4526V32.1236V31.9986H84.6945H76.998H76.873V32.1236V41.8146V41.9396H76.998H84.7872H84.8942L84.9107 41.8338L85.1169 40.5047L85.1393 40.3606H84.9934H78.74V37.5292H84.3866Z" fill="#1B7376" stroke="#1B7376" stroke-width="0.25"/>
<path d="M89.8048 41.9426H89.8877L89.9199 41.8662L91.0534 39.1809H95.5367L96.7233 41.868L96.7562 41.9426H96.8377H98.5951H98.7878L98.7093 41.7666L94.3873 32.0756L94.3543 32.0016H94.2732H92.2706H92.1881L92.1557 32.0774L88.0101 41.7684L87.9356 41.9426H88.125H89.8048ZM91.6334 37.593C92.394 35.7701 92.9506 34.3669 93.2203 33.5992C93.489 34.3137 94.0016 35.4968 94.9217 37.593H91.6334Z" fill="#1B7376" stroke="#1B7376" stroke-width="0.25"/>
<path d="M102.191 32.0016H101.887L102.069 32.1817V41.8205V41.9455H102.194H103.811H103.936V41.8205V37.843H109.38H109.505V37.718V36.3801V36.2551H109.38H103.936V33.5747H109.78H109.905V33.4497V32.1266V32.0016H109.78H102.191Z" fill="#1B7376" stroke="#1B7376" stroke-width="0.25"/>
<path d="M75.2373 56.701H75.3142L75.3489 56.6323L75.3519 56.6264L75.3653 56.5998V56.5701V51.2096V51.0846H75.2403H70.6882H70.5632V51.2096V52.5179V52.6429H70.6882H73.5491V52.7754C73.5491 53.6135 73.2927 54.2549 72.8155 54.6883C72.3366 55.1233 71.6175 55.3647 70.6613 55.3647C69.5404 55.3647 68.6971 54.9722 68.1324 54.3239C67.5656 53.6732 67.2683 52.752 67.2683 51.6772C67.2683 50.6597 67.5598 49.7622 68.1262 49.1208C68.6906 48.4816 69.5387 48.0845 70.6792 48.0845C71.5767 48.0845 72.2056 48.2956 72.6477 48.5961C73.0901 48.8966 73.355 49.2931 73.5136 49.6794L73.5454 49.7569H73.6292H75.2851H75.4435L75.4067 49.6028C75.2304 48.8664 74.8118 48.1023 74.0521 47.523C73.2921 46.9435 72.1999 46.5558 70.6882 46.5558C69.0021 46.5558 67.6539 47.0942 66.7269 48.0217C65.8001 48.9491 65.3057 50.2541 65.3057 51.766C65.3057 53.2766 65.779 54.5635 66.6589 55.4734C67.5394 56.3839 68.8157 56.9053 70.3982 56.9053C71.3589 56.9053 72.093 56.7623 72.6726 56.4897C73.1368 56.2714 73.4966 55.9724 73.7924 55.6065C73.8164 55.9865 73.861 56.4187 73.8983 56.6011L73.9188 56.701H74.0208H75.2373Z" fill="#1B7376" stroke="#1B7376" stroke-width="0.25"/>
<path d="M86.5898 51.8611C87.0195 51.6913 87.3671 51.4389 87.6205 51.1089C87.9391 50.694 88.1014 50.1663 88.1014 49.549C88.1014 48.6589 87.7529 47.9551 87.1293 47.4773C86.5099 47.0028 85.631 46.76 84.5811 46.76H79.751H79.626V46.885V56.576V56.701H79.751H81.356H81.481V56.576V52.6311H83.8816C84.7008 52.6311 85.2001 52.7429 85.4975 52.9884C85.7873 53.2275 85.9146 53.6196 85.9146 54.2702V54.5928C85.9146 54.6396 85.9146 54.686 85.9146 54.7319C85.9144 55.1084 85.9142 55.4549 85.929 55.7574C85.9455 56.0954 85.9812 56.391 86.0622 56.6206L86.0917 56.704H86.1801H87.839H88.0056L87.959 56.544C87.9023 56.3498 87.8734 56.0584 87.8596 55.7159C87.8471 55.406 87.8472 55.0643 87.8474 54.7307C87.8474 54.6985 87.8474 54.6663 87.8474 54.6343V54.1933C87.8474 53.3169 87.6086 52.7441 87.2801 52.367C87.0664 52.1216 86.8199 51.9651 86.5898 51.8611ZM84.1865 51.1053H81.478V48.2858H84.2284C84.9117 48.2858 85.4025 48.4109 85.7197 48.6389C86.0294 48.8617 86.1896 49.1943 86.1896 49.6556C86.1896 50.162 86.0284 50.5135 85.7155 50.7441C85.3949 50.9805 84.8949 51.1053 84.1865 51.1053Z" fill="#1B7376" stroke="#1B7376" stroke-width="0.25"/>
<path d="M96.85 56.9083C98.5547 56.9083 99.8896 56.3074 100.798 55.3505C101.705 54.3947 102.179 53.0921 102.179 51.701C102.179 48.9573 100.163 46.5558 96.9068 46.5558C93.6523 46.5558 91.5811 48.9525 91.5811 51.701C91.5811 53.1463 92.0386 54.4496 92.9319 55.3926C93.8263 56.3367 95.1469 56.9083 96.85 56.9083ZM96.9187 55.344C95.8033 55.344 94.9631 54.9144 94.3997 54.2459C93.8342 53.5748 93.5407 52.6542 93.5407 51.6654V51.6625C93.5407 50.7138 93.8385 49.8265 94.3956 49.1784C94.9508 48.5325 95.7693 48.1171 96.829 48.1171C97.9635 48.1171 98.8058 48.5424 99.3664 49.1995C99.9293 49.8593 100.216 50.7625 100.216 51.7276C100.216 52.6941 99.9419 53.5992 99.3965 54.2602C98.8536 54.9181 98.0342 55.344 96.9187 55.344Z" fill="#1B7376" stroke="#1B7376" stroke-width="0.25"/>
<path d="M107.932 46.885V46.5856L107.753 46.763H106.188H106.062V46.888V52.4883C106.062 54.0195 106.491 55.1316 107.284 55.859C108.075 56.5846 109.208 56.9082 110.578 56.9082C111.948 56.9082 113.077 56.5822 113.863 55.8427C114.651 55.1019 115.073 53.9662 115.073 52.3936V46.885V46.76H114.948H113.331H113.206V46.885V52.3847C113.206 53.5266 112.952 54.2594 112.518 54.708C112.085 55.1554 111.45 55.344 110.632 55.344C109.941 55.344 109.269 55.1827 108.771 54.7423C108.276 54.3045 107.932 53.5722 107.932 52.3847V46.885Z" fill="#1B7376" stroke="#1B7376" stroke-width="0.25"/>
<path d="M119.697 46.76H119.572V46.885V56.576V56.701H119.697H121.323H121.448V56.576V52.9211H124.432C125.564 52.9211 126.489 52.6436 127.133 52.1058C127.78 51.5655 128.128 50.7748 128.128 49.7829C128.128 48.9121 127.815 48.1511 127.183 47.6097C126.554 47.0701 125.622 46.76 124.405 46.76H119.697ZM121.448 51.3569V48.3184H124.237C124.947 48.3184 125.447 48.4639 125.768 48.7157C126.084 48.9634 126.244 49.3276 126.244 49.8095C126.244 50.425 126.04 50.7996 125.706 51.0276C125.363 51.2624 124.862 51.3569 124.237 51.3569H121.448Z" fill="#1B7376" stroke="#1B7376" stroke-width="0.25"/>
</g>
<defs>
<clipPath id="clip0_71_259">
<rect width="128" height="56" fill="white" transform="translate(0 0.783234)"/>
</clipPath>
</defs>
</svg>
